<svg width="16" height="16" viewBox="0 0 16 16" fill="none" xmlns="http://www.w3.org/2000/svg">
<path fill-rule="evenodd" clip-rule="evenodd" d="M14.9979 8.62696C15.3293 8.62825 15.599 8.36067 15.6003 8.0293C15.6016 7.69794 15.334 7.42826 15.0026 7.42697L8.60241 7.402L8.62739 1.0018C8.62868 0.670434 8.3611 0.400759 8.02973 0.399466C7.69836 0.398173 7.42869 0.665752 7.42739 0.997121L7.40242 7.39731L1.00223 7.37234C0.670861 7.37105 0.401186 7.63863 0.399893 7.96999C0.3986 8.30136 0.666179 8.57104 0.997548 8.57233L7.39774 8.5973L7.37277 14.9975C7.37147 15.3289 7.63905 15.5985 7.97042 15.5998C8.30179 15.6011 8.57147 15.3335 8.57276 15.0022L8.59773 8.60199L14.9979 8.62696Z" fill="white"/>
</svg>
